<svg width="88" height="88" viewBox="0 0 88 88" fill="none" xmlns="http://www.w3.org/2000/svg">
<rect x="0.5" y="0.5" width="87" height="87" rx="11.5" fill="url(#paint0_linear_282_2609)" fill-opacity="0.2"/>
<rect x="0.5" y="0.5" width="87" height="87" rx="11.5" stroke="#262626"/>
<g clip-path="url(#clip0_282_2609)">
<g clip-path="url(#clip1_282_2609)">
<path d="M29.9943 43.0498C30.3593 43.0076 30.7384 42.9796 31.1034 42.9796C31.4965 42.9796 31.8755 43.0076 32.2546 43.0638V40.0033H29.9943V43.0498ZM29.9943 38.0801H32.2546V35.146C32.2546 33.6859 33.0267 32.9419 34.4306 32.9419H37.3366V30.6816H34.4025C31.4684 30.6816 29.9943 32.1276 29.9943 35.0336V38.0801ZM39.2599 32.9419H45.5913V30.6816H39.2599V32.9419ZM47.5007 32.9419H53.8321V30.6816H47.5007V32.9419ZM63.0977 38.0801V35.0336C63.0977 32.1276 61.6236 30.6816 58.6895 30.6816H55.7554V32.9419H58.6615C60.0654 32.9419 60.8375 33.6859 60.8375 35.146V38.0801H63.0977ZM63.0977 47.2052V40.0033H60.8375V47.2052H63.0977ZM58.6895 56.527C61.6236 56.527 63.0977 55.081 63.0977 52.175V49.1285H60.8375V52.0626C60.8375 53.5227 60.0654 54.2668 58.6615 54.2668H55.7554V56.527H58.6895ZM47.5007 56.527H53.8321V54.2668H47.5007V56.527ZM38.9791 56.513L45.5913 56.527V54.2668H39.8636C39.681 55.067 39.3863 55.8109 38.9791 56.513ZM31.1315 59.1802C35.0343 59.1802 38.2631 55.9513 38.2631 52.0486C38.2631 48.1599 35.0202 44.9169 31.1174 44.9169C27.2287 44.9169 23.9998 48.1599 23.9998 52.0486C23.9998 55.9513 27.2427 59.1802 31.1315 59.1802ZM31.1315 57.4957C28.1131 57.4957 25.6985 55.067 25.6985 52.0486C25.6985 49.0443 28.1131 46.6015 31.1174 46.6015C34.1358 46.6015 36.5645 49.0443 36.5785 52.0486C36.5925 55.067 34.1358 57.4957 31.1315 57.4957ZM31.1174 56.2743C33.4479 56.2743 35.3431 54.365 35.3431 52.0626C35.3431 49.7462 33.4338 47.837 31.1174 47.837C28.801 47.837 26.9058 49.7462 26.9058 52.0626C26.9058 54.365 28.8151 56.2743 31.1174 56.2743Z" fill="#F1F1F1"/>
</g>
</g>
<defs>
<linearGradient id="paint0_linear_282_2609" x1="-113.5" y1="-87" x2="88" y2="88" gradientUnits="userSpaceOnUse">
<stop offset="0.521" stop-color="#004EB5"/>
<stop offset="0.707836" stop-color="#519CFF" stop-opacity="0.4"/>
</linearGradient>
<clipPath id="clip0_282_2609">
<rect width="40" height="40" fill="white" transform="translate(24 24)"/>
</clipPath>
<clipPath id="clip1_282_2609">
<rect width="39.0979" height="31.18" fill="white" transform="translate(23.9998 28)"/>
</clipPath>
</defs>
</svg>
