<svg width="88" height="88" viewBox="0 0 88 88" fill="none" xmlns="http://www.w3.org/2000/svg">
<rect x="0.5" y="0.5" width="87" height="87" rx="11.5" fill="url(#paint0_linear_282_2507)" fill-opacity="0.2"/>
<rect x="0.5" y="0.5" width="87" height="87" rx="11.5" stroke="#262626"/>
<path d="M29.7143 58.4866C29.7143 59.7924 29.9989 60.5793 31.2377 61.1819C34.1005 62.4207 38.0514 63.2411 42.7891 63.2411C47.4766 63.2411 52.75 62.538 56.5334 60.6964C58.5424 59.7421 59.0279 58.8549 59.0279 56.779V31.0815C59.0279 28.3694 57.8226 27.1306 55.211 27.1306H53.6373V26.4609C53.6373 24.8036 52.8003 24 51.327 24C50.8247 24 50.2222 24.1172 49.5023 24.3516C44.4464 26.0089 39.8259 27.0636 33.8996 27.0636H32.5603C30.7522 27.0636 29.7143 28.1183 29.7143 29.7589V58.4866ZM35.6574 39.7533V34.0949C35.6574 33.8605 35.8248 33.6596 36.0592 33.6429C39.9598 33.4922 43.442 32.8058 47.0079 31.5C47.2087 31.4163 47.5603 31.5 47.5603 31.9018V37.8114C47.5603 37.9621 47.4766 38.1127 47.3259 38.1629C44.212 39.4353 40.1105 40.1551 36.0592 40.1551C35.8415 40.1551 35.6574 40.0211 35.6574 39.7533ZM36.5112 60.3783C43.0904 60.1941 49.2009 58.3527 52.5156 55.8247C53.2857 55.2389 53.6373 54.6361 53.6373 53.163V29.8259H55.2277C55.9643 29.8259 56.3326 30.2277 56.3326 31.0815V56.5949C56.3326 57.5993 56.1819 57.9676 55.2277 58.3861C51.8962 59.8426 47.2087 60.7801 42.7891 60.7801C40.6797 60.7801 38.6875 60.663 36.5112 60.3783Z" fill="#F1F1F1"/>
<defs>
<linearGradient id="paint0_linear_282_2507" x1="-113.5" y1="-87" x2="88" y2="88" gradientUnits="userSpaceOnUse">
<stop offset="0.511" stop-color="#004BE5" stop-opacity="0.709804"/>
<stop offset="0.707836" stop-color="#519CFF" stop-opacity="0.4"/>
</linearGradient>
</defs>
</svg>
