<svg width="88" height="88" viewBox="0 0 88 88" fill="none" xmlns="http://www.w3.org/2000/svg">
<rect x="0.5" y="0.5" width="87" height="87" rx="11.5" fill="url(#paint0_linear_282_2468)" fill-opacity="0.2"/>
<rect x="0.5" y="0.5" width="87" height="87" rx="11.5" stroke="#262626"/>
<g clip-path="url(#clip0_282_2468)">
<path d="M28.4635 47.2699H38.57C40.9361 47.2699 42.3149 45.9222 42.3149 43.5877V33.4811C42.3149 31.1464 40.9361 29.7989 38.57 29.7989H28.4635C26.1132 29.7989 24.75 31.1308 24.75 33.4811V43.5877C24.75 45.938 26.1132 47.2699 28.4635 47.2699ZM48.8332 47.4735H59.1435C61.5878 47.4735 62.9824 46.0947 62.9824 43.713V33.3714C62.9824 30.9741 61.5878 29.5952 59.1435 29.5952H48.8332C46.4045 29.5952 45.0099 30.9741 45.0099 33.3714V43.713C45.0099 46.0947 46.4045 47.4735 48.8332 47.4735ZM48.8646 44.9978C47.9402 44.9978 47.4857 44.5434 47.4857 43.6033V33.4655C47.4857 32.5253 47.9402 32.0709 48.8646 32.0709H59.1121C60.068 32.0709 60.5067 32.5253 60.5067 33.4655V43.6033C60.5067 44.5434 60.068 44.9978 59.1121 44.9978H48.8646ZM25.9408 53.1301C25.2984 53.1301 24.75 53.6942 24.75 54.3992C24.75 55.1043 25.2984 55.6528 25.9408 55.6528H31.0019V53.1301H25.9408ZM33.7283 58.1598C35.7966 58.1598 37.4889 56.4676 37.4889 54.3992C37.4889 52.3153 35.7966 50.623 33.7283 50.623C31.66 50.623 29.9678 52.3153 29.9678 54.3992C29.9678 56.4676 31.66 58.1598 33.7283 58.1598ZM33.7283 56.2325C32.6942 56.2325 31.8951 55.4177 31.8951 54.3836C31.8951 53.3494 32.6942 52.5503 33.7283 52.5503C34.7468 52.5503 35.5616 53.3494 35.5616 54.3836C35.5616 55.4177 34.7468 56.2325 33.7283 56.2325ZM36.2197 53.1301V55.6528H61.7131C62.4183 55.6528 62.9824 55.1043 62.9824 54.3992C62.9824 53.6942 62.4183 53.1301 61.7131 53.1301H36.2197Z" fill="#F1F1F1"/>
</g>
<defs>
<linearGradient id="paint0_linear_282_2468" x1="-113.5" y1="-87" x2="88" y2="88" gradientUnits="userSpaceOnUse">
<stop offset="0.511" stop-color="#004EB5"/>
<stop offset="0.707836" stop-color="#519CFF" stop-opacity="0.4"/>
</linearGradient>
<clipPath id="clip0_282_2468">
<rect width="38.2324" height="29.16" fill="white" transform="translate(24.75 29)"/>
</clipPath>
</defs>
</svg>
