<svg width="88" height="88" viewBox="0 0 88 88" fill="none" xmlns="http://www.w3.org/2000/svg">
<rect x="0.5" y="0.5" width="87" height="87" rx="11.5" fill="url(#paint0_linear_282_2480)" fill-opacity="0.2"/>
<rect x="0.5" y="0.5" width="87" height="87" rx="11.5" stroke="#262626"/>
<g clip-path="url(#clip0_282_2480)">
<path d="M29.7199 43.9328C29.7199 42.4094 29.9542 40.9362 30.3895 39.5801L27.7612 38.4752C27.192 40.1996 26.8571 42.0244 26.8571 43.9328C26.8571 45.8245 27.192 47.6661 27.7779 49.3904L30.3895 48.2855C29.9542 46.9295 29.7199 45.4562 29.7199 43.9328ZM37.4208 31.2431L36.3493 28.665C33.0346 30.3223 30.3058 33.0511 28.6484 36.3659L31.26 37.454C32.5993 34.7922 34.7757 32.6159 37.4208 31.2431ZM43.9163 29.7029C45.4397 29.7029 46.913 29.9373 48.3024 30.3893L49.3739 27.7777C47.6496 27.1918 45.808 26.8569 43.9163 26.8569C42.0246 26.8569 40.1663 27.1918 38.442 27.7777L39.5469 30.3893C40.9196 29.9373 42.3929 29.7029 43.9163 29.7029ZM56.606 37.4373L59.2009 36.3659C57.5269 33.0511 54.798 30.3223 51.4833 28.6482L50.4119 31.2431C53.0569 32.5991 55.25 34.7755 56.606 37.4373ZM58.163 43.9328C58.163 45.4562 57.9286 46.9295 57.4933 48.3022L60.0881 49.4072C60.6741 47.6828 61.0089 45.8245 61.0089 43.9328C61.0089 42.0244 60.6741 40.1828 60.0881 38.4585L57.4766 39.5634C57.9286 40.9362 58.163 42.4094 58.163 43.9328ZM50.4119 56.6058L51.4833 59.2174C54.8147 57.5434 57.5436 54.8145 59.1841 51.4998L56.6227 50.4284C55.2667 53.0902 53.0737 55.2498 50.4119 56.6058ZM43.933 58.1628C42.3929 58.1628 40.9196 57.9284 39.5469 57.4764L38.4587 60.0879C40.183 60.6739 42.0413 61.0086 43.933 61.0086C45.8247 61.0086 47.6663 60.6739 49.3739 60.1046L48.2857 57.4931C46.913 57.9284 45.4564 58.1628 43.933 58.1628ZM31.26 50.4284L28.6652 51.4998C30.3393 54.8145 33.0346 57.5434 36.3493 59.2006L37.4208 56.5891C34.7757 55.2331 32.5993 53.0735 31.26 50.4284ZM43.8996 55.6181C50.4119 55.6181 55.6016 50.4284 55.5849 43.9328C55.5681 37.4373 50.3783 32.2476 43.8829 32.2476C37.3873 32.2476 32.231 37.4205 32.231 43.9328C32.231 50.4451 37.404 55.6181 43.8996 55.6181Z" fill="#F1F1F1"/>
</g>
<defs>
<linearGradient id="paint0_linear_282_2480" x1="-113.5" y1="-87" x2="88" y2="88" gradientUnits="userSpaceOnUse">
<stop offset="0.511" stop-color="#004BE5" stop-opacity="0.709804"/>
<stop offset="0.707836" stop-color="#519CFF" stop-opacity="0.4"/>
</linearGradient>
<clipPath id="clip0_282_2480">
<rect width="34.1517" height="34.1686" fill="white" transform="translate(26.8571 26.8569)"/>
</clipPath>
</defs>
</svg>
