<svg width="88" height="88" viewBox="0 0 88 88" fill="none" xmlns="http://www.w3.org/2000/svg">
<rect x="0.5" y="0.5" width="87" height="87" rx="11.5" fill="url(#paint0_linear_282_2570)" fill-opacity="0.2"/>
<rect x="0.5" y="0.5" width="87" height="87" rx="11.5" stroke="#262626"/>
<path d="M34.3516 63.1463H53.0513C55.8303 63.1463 57.6886 61.3719 57.6886 58.7267V29.8651C57.6886 27.22 55.8303 25.4287 53.0513 25.4287H34.3516C31.5725 25.4287 29.7143 27.22 29.7143 29.8651V58.7267C29.7143 61.3719 31.5725 63.1463 34.3516 63.1463ZM34.6864 60.451C33.2467 60.451 32.4096 59.6474 32.4096 58.2747V30.3171C32.4096 28.9443 33.2467 28.124 34.6864 28.124H52.7166C54.1396 28.124 54.9933 28.9443 54.9933 30.3171V58.2747C54.9933 59.6474 54.1396 60.451 52.7166 60.451H34.6864ZM37.2813 40.8473H50.1384C51.0257 40.8473 51.6283 40.2613 51.6283 39.3238V35.7077C51.6283 34.7702 51.0257 34.1843 50.1384 34.1843H37.2813C36.394 34.1843 35.7913 34.7702 35.7913 35.7077V39.3238C35.7913 40.2613 36.394 40.8473 37.2813 40.8473ZM37.2813 54.3573H50.1384C51.0257 54.3573 51.6283 53.7546 51.6283 52.8339V49.201C51.6283 48.2803 51.0257 47.6776 50.1384 47.6776H37.2813C36.394 47.6776 35.7913 48.2803 35.7913 49.201V52.8339C35.7913 53.7546 36.394 54.3573 37.2813 54.3573Z" fill="#F1F1F1"/>
<defs>
<linearGradient id="paint0_linear_282_2570" x1="-113.5" y1="-87" x2="88" y2="88" gradientUnits="userSpaceOnUse">
<stop offset="0.521" stop-color="#004EB5"/>
<stop offset="0.707836" stop-color="#519CFF" stop-opacity="0.4"/>
</linearGradient>
</defs>
</svg>
