<svg width="88" height="88" viewBox="0 0 88 88" fill="none" xmlns="http://www.w3.org/2000/svg">
<rect x="0.5" y="0.5" width="87" height="87" rx="11.5" fill="url(#paint0_linear_282_2588)" fill-opacity="0.2"/>
<rect x="0.5" y="0.5" width="87" height="87" rx="11.5" stroke="#262626"/>
<path d="M36.2935 50.8919C35.7578 50.3394 34.8036 50.3394 34.2344 50.8919L30.7857 54.3239C30.2333 54.8763 30.2333 55.8304 30.769 56.383C31.3214 56.9354 32.2757 56.9521 32.8449 56.3997L36.2935 52.951C36.8627 52.3986 36.8627 51.4611 36.2935 50.8919ZM33.2634 43.5927C33.2634 42.806 32.5938 42.1363 31.7902 42.1363H26.8851C26.0982 42.1363 25.4286 42.806 25.4286 43.5927C25.4286 44.3796 26.0982 45.0493 26.8851 45.0493H31.7902C32.5938 45.0493 33.2634 44.3796 33.2634 43.5927ZM36.1261 36.143C36.6953 35.5905 36.6953 34.653 36.1261 34.0838L32.6942 30.6352C32.1418 30.0827 31.2043 30.066 30.6351 30.6184C30.0826 31.1709 30.0826 32.1084 30.6351 32.6776L34.067 36.143C34.6362 36.7122 35.5737 36.7122 36.1261 36.143ZM43.5926 33.2301C44.3962 33.2301 45.0659 32.5604 45.0659 31.7736V26.8852C45.0659 26.0984 44.3962 25.4287 43.5926 25.4287C42.8059 25.4287 42.1362 26.0984 42.1362 26.8852V31.7736C42.1362 32.5604 42.8059 33.2301 43.5926 33.2301ZM50.875 36.3104C51.4442 36.8796 52.3984 36.8796 52.9509 36.3104L56.3996 32.8617C56.9687 32.2926 56.9687 31.3551 56.3996 30.7859C55.8472 30.2334 54.9096 30.2334 54.3572 30.7859L50.875 34.2513C50.3226 34.8205 50.3226 35.758 50.875 36.3104ZM53.9554 43.5927C53.9554 44.3796 54.625 45.0493 55.4119 45.0493H60.3003C61.1039 45.0493 61.7734 44.3796 61.7734 43.5927C61.7734 42.806 61.1039 42.1363 60.3003 42.1363H55.4119C54.625 42.1363 53.9554 42.806 53.9554 43.5927ZM42.2702 55.2279C42.2533 55.8807 43.0067 56.0816 43.442 55.6631L45.9866 53.1017L48.8493 60.1831C48.9833 60.4846 49.3182 60.6519 49.6194 60.518L51.2936 59.8651C51.5949 59.7144 51.712 59.3629 51.5614 59.0616L48.548 52.0973L52.164 51.9466C52.7834 51.9131 53.1016 51.3104 52.6496 50.8249L43.4922 41.4331C43.0737 40.9979 42.4374 41.2323 42.4207 41.8517L42.2702 55.2279Z" fill="#F1F1F1"/>
<defs>
<linearGradient id="paint0_linear_282_2588" x1="-113.5" y1="-87" x2="88" y2="88" gradientUnits="userSpaceOnUse">
<stop offset="0.521" stop-color="#004EB5"/>
<stop offset="0.707836" stop-color="#519CFF" stop-opacity="0.4"/>
</linearGradient>
</defs>
</svg>
