<svg width="88" height="88" viewBox="0 0 88 88" fill="none" xmlns="http://www.w3.org/2000/svg">
<rect x="0.5" y="0.5" width="87" height="87" rx="11.5" fill="url(#paint0_linear_282_2498)" fill-opacity="0.2"/>
<rect x="0.5" y="0.5" width="87" height="87" rx="11.5" stroke="#262626"/>
<g clip-path="url(#clip0_282_2498)">
<path d="M31.1261 53.8659L32.4821 56.1762L44.4185 50.1829L56.3548 56.1762L57.711 53.8659L45.7745 47.8726V33.7432H43.0793V47.8726L31.1261 53.8659ZM26.8906 56.2599C26.8906 56.9464 27.1752 57.4486 27.7779 57.7834L31.1261 59.7421C31.5614 60.0099 31.8627 60.0602 32.4486 59.7254L35.7131 57.8336C36.3158 57.4988 36.433 57.2142 36.4163 56.6618L36.433 52.7778C36.433 52.1082 36.1317 51.6226 35.5625 51.2879L32.1975 49.3292C31.7622 49.0948 31.3939 49.0111 30.8247 49.3292L27.51 51.2544C26.9408 51.5725 26.8571 51.9074 26.8571 52.3761L26.8906 56.2599ZM52.3203 56.6785C52.3035 57.2309 52.4207 57.5155 53.0234 57.8504L56.288 59.7421C56.8738 60.0769 57.1753 60.0268 57.6104 59.7588L60.9587 57.8002C61.5614 57.4654 61.846 56.9631 61.846 56.2768L61.8794 52.3928C61.8794 51.9241 61.7957 51.5892 61.2265 51.2711L57.9118 49.3459C57.3425 49.0278 56.9743 49.1115 56.539 49.3459L53.1741 51.3046C52.6048 51.6395 52.3035 52.1249 52.3035 52.7945L52.3203 56.6785ZM40.1495 36.606L43.5313 38.5479C44.1004 38.866 44.6528 38.866 45.2221 38.5479L48.6038 36.606C49.0725 36.3381 49.2734 36.087 49.2734 35.4006V31.6171C49.2734 30.9475 49.0725 30.7131 48.6373 30.462L45.2555 28.5368C44.6528 28.2019 44.0837 28.2019 43.4977 28.5368L40.116 30.462C39.6975 30.6964 39.4631 30.9475 39.4631 31.6171V35.4006C39.4631 36.087 39.7143 36.3548 40.1495 36.606Z" fill="#F1F1F1"/>
</g>
<defs>
<linearGradient id="paint0_linear_282_2498" x1="-113.5" y1="-87" x2="88" y2="88" gradientUnits="userSpaceOnUse">
<stop offset="0.511" stop-color="#004BE5" stop-opacity="0.709804"/>
<stop offset="0.707836" stop-color="#519CFF" stop-opacity="0.4"/>
</linearGradient>
<clipPath id="clip0_282_2498">
<rect width="35.0223" height="31.7579" fill="white" transform="translate(26.8571 28.2856)"/>
</clipPath>
</defs>
</svg>
