<svg width="88" height="88" viewBox="0 0 88 88" fill="none" xmlns="http://www.w3.org/2000/svg">
<rect x="0.500031" y="0.5" width="87" height="87" rx="11.5" fill="url(#paint0_linear_282_2546)" fill-opacity="0.2"/>
<rect x="0.500031" y="0.5" width="87" height="87" rx="11.5" stroke="#262626"/>
<path fill-rule="evenodd" clip-rule="evenodd" d="M27.75 34C27.75 31.2386 29.9886 29 32.75 29H55.25C58.0115 29 60.25 31.2386 60.25 34V54C60.25 56.7614 58.0115 59 55.25 59H32.75C29.9886 59 27.75 56.7614 27.75 54V34ZM34.3661 35.6161C34.8543 35.128 35.6458 35.128 36.1339 35.6161L39.8839 39.3661C40.3721 39.8543 40.3721 40.6457 39.8839 41.1339L36.1339 44.8839C35.6458 45.372 34.8543 45.372 34.3661 44.8839C33.878 44.3957 33.878 43.6043 34.3661 43.1161L37.2323 40.25L34.3661 37.3839C33.878 36.8957 33.878 36.1043 34.3661 35.6161ZM41.5 42.75C40.8097 42.75 40.25 43.3096 40.25 44C40.25 44.6904 40.8097 45.25 41.5 45.25H46.5C47.1904 45.25 47.75 44.6904 47.75 44C47.75 43.3096 47.1904 42.75 46.5 42.75H41.5Z" fill="#F1F1F1"/>
<defs>
<linearGradient id="paint0_linear_282_2546" x1="-113.5" y1="-87" x2="88" y2="88" gradientUnits="userSpaceOnUse">
<stop offset="0.521" stop-color="#004EB5"/>
<stop offset="0.707836" stop-color="#519CFF" stop-opacity="0.4"/>
</linearGradient>
</defs>
</svg>
