<svg width="88" height="88" viewBox="0 0 88 88" fill="none" xmlns="http://www.w3.org/2000/svg">
<rect x="0.5" y="0.5" width="87" height="87" rx="11.5" fill="url(#paint0_linear_282_2441)" fill-opacity="0.2"/>
<rect x="0.5" y="0.5" width="87" height="87" rx="11.5" stroke="#262626"/>
<path d="M45.7174 30.5178C46.4805 30.5178 47.0611 29.9372 47.0611 29.1741C47.0611 28.4276 46.4805 27.847 45.7174 27.847H33.574L36.2117 30.5178H45.7174ZM50.379 35.2624C51.1255 35.2624 51.7227 34.6652 51.7227 33.9021C51.7227 33.1555 51.1255 32.5915 50.379 32.5915H38.2024L40.8401 35.2624H50.379ZM54.941 39.9903C55.6876 39.9903 56.2683 39.3931 56.2683 38.63C56.2683 37.8835 55.6876 37.3195 54.941 37.3195H42.8309L45.4685 39.9903H54.941ZM59.5529 42.0475H47.4593C48.4546 43.0594 48.9025 43.6732 48.9689 44.7183H59.5529C60.2994 44.7183 60.8966 44.1376 60.8966 43.3746C60.8966 42.628 60.2994 42.0475 59.5529 42.0475ZM44.2077 58.4377L38.2522 44.5193L37.4559 45.8796L45.7174 46.344C46.8289 46.4104 47.3598 45.2159 46.5635 44.4031L30.14 27.6147C29.4101 26.8682 28.282 27.2829 28.282 28.3281L28 51.6859C28 52.8304 29.2774 53.295 30.0073 52.4489L35.3491 46.5431L33.8063 46.145L39.5628 60.3786C39.795 60.9426 40.3756 61.2081 40.8899 60.9759L43.7433 59.798C44.2741 59.5989 44.4566 58.9851 44.2077 58.4377Z" fill="#F1F1F1"/>
<defs>
<linearGradient id="paint0_linear_282_2441" x1="-113.5" y1="-87" x2="88" y2="88" gradientUnits="userSpaceOnUse">
<stop offset="0.511" stop-color="#004EB5"/>
<stop offset="0.707836" stop-color="#519CFF" stop-opacity="0.4"/>
</linearGradient>
</defs>
</svg>
