<svg width="88" height="88" viewBox="0 0 88 88" fill="none" xmlns="http://www.w3.org/2000/svg">
<rect x="0.5" y="0.5" width="87" height="87" rx="11.5" fill="url(#paint0_linear_282_2618)" fill-opacity="0.2"/>
<rect x="0.5" y="0.5" width="87" height="87" rx="11.5" stroke="#262626"/>
<path d="M28.3035 55.2535H59.626C62.3229 55.2535 63.6792 53.976 63.6792 51.2002V33.1259C63.6792 30.3659 62.3229 29.0884 59.626 29.0884H28.3035C25.6065 29.0884 24.2502 30.3659 24.2502 33.1259V51.2002C24.2502 53.976 25.6065 55.2535 28.3035 55.2535ZM36.0316 60.6001H51.8978C52.5918 60.6001 53.1753 60.0323 53.1753 59.3225C53.1753 58.6129 52.5918 58.0451 51.8978 58.0451H36.0316C35.3376 58.0451 34.7541 58.6129 34.7541 59.3225C34.7541 60.0323 35.3376 60.6001 36.0316 60.6001ZM44.7848 48.7083C44.4378 48.7083 44.217 48.5033 44.1697 48.1721C43.4758 43.4247 42.8606 42.3681 37.8768 41.8634C37.5456 41.816 37.3406 41.5794 37.3406 41.2641C37.3406 40.9644 37.5456 40.7121 37.8768 40.6648C42.8449 40.0023 43.2707 39.1349 44.1697 34.3403C44.2486 34.0249 44.4693 33.8199 44.7848 33.8199C45.0845 33.8199 45.321 34.0407 45.3683 34.3561C46.0781 39.056 46.7247 40.0023 51.677 40.6648C51.9925 40.7121 52.2132 40.9644 52.2132 41.2641C52.2132 41.5794 51.9925 41.816 51.677 41.8634C46.7089 42.5258 46.2674 43.4247 45.3683 48.1878C45.3052 48.5033 45.0845 48.7083 44.7848 48.7083ZM38.3815 51.3737C38.1292 51.3737 38.0031 51.2002 37.9242 50.9479C37.451 48.6294 37.656 48.519 35.101 48.1404C34.8329 48.0932 34.691 47.9355 34.691 47.6831C34.691 47.4623 34.8329 47.273 35.0695 47.2416C37.656 46.8157 37.451 46.7052 37.9242 44.4026C38.0031 44.1503 38.1449 43.9768 38.3815 43.9768C38.6181 43.9768 38.7759 44.166 38.8388 44.4026C39.2805 46.7052 39.1228 46.8157 41.7094 47.2416C41.9301 47.273 42.0878 47.4623 42.0878 47.6831C42.0878 47.904 41.9301 48.0932 41.7094 48.1404C39.1228 48.519 39.2805 48.6294 38.8388 50.9951C38.7759 51.216 38.6024 51.3737 38.3815 51.3737Z" fill="#F1F1F1"/>
<defs>
<linearGradient id="paint0_linear_282_2618" x1="-113.5" y1="-87" x2="88" y2="88" gradientUnits="userSpaceOnUse">
<stop offset="0.521" stop-color="#004EB5"/>
<stop offset="0.707836" stop-color="#519CFF" stop-opacity="0.4"/>
</linearGradient>
</defs>
</svg>
