<svg width="88" height="88" viewBox="0 0 88 88" fill="none" xmlns="http://www.w3.org/2000/svg">
<rect x="0.5" y="0.5" width="87" height="87" rx="11.5" fill="url(#paint0_linear_282_2489)" fill-opacity="0.2"/>
<rect x="0.5" y="0.5" width="87" height="87" rx="11.5" stroke="#262626"/>
<path d="M28.2857 37.3258C28.2857 38.799 29.8594 39.1673 30.7969 38.2131L38.2132 30.7968C39.1841 29.8426 38.7991 28.2856 37.3259 28.2856H29.8091C28.8716 28.2856 28.2857 28.9218 28.2857 29.8258V37.3258ZM32.6049 34.7142L53.8158 55.9419L55.942 53.8492L34.731 32.6048L32.6049 34.7142ZM60.2779 51.2376C60.2779 49.7476 58.7043 49.3961 57.75 50.3336L50.3337 57.7499C49.3794 58.7209 49.7646 60.2778 51.2377 60.2778H58.7544C59.692 60.2778 60.2779 59.6249 60.2779 58.7376V51.2376ZM60.2779 37.3258V29.8258C60.2779 28.9218 59.692 28.2856 58.7544 28.2856H51.2377C49.7646 28.2856 49.3794 29.8426 50.3337 30.7968L57.75 38.2131C58.7043 39.1673 60.2779 38.799 60.2779 37.3258ZM34.731 55.9419L55.9587 34.7142L53.8326 32.6048L32.6049 53.8325L34.731 55.9419ZM28.2857 51.2376V58.7376C28.2857 59.6249 28.8716 60.2778 29.8091 60.2778H37.3259C38.7991 60.2778 39.1841 58.7209 38.2132 57.7499L30.7969 50.3336C29.8594 49.3961 28.2857 49.7476 28.2857 51.2376Z" fill="#F1F1F1"/>
<defs>
<linearGradient id="paint0_linear_282_2489" x1="-113.5" y1="-87" x2="88" y2="88" gradientUnits="userSpaceOnUse">
<stop offset="0.511" stop-color="#004BE5" stop-opacity="0.709804"/>
<stop offset="0.707836" stop-color="#519CFF" stop-opacity="0.4"/>
</linearGradient>
</defs>
</svg>
