<svg width="88" height="88" viewBox="0 0 88 88" fill="none" xmlns="http://www.w3.org/2000/svg">
<rect x="0.5" y="0.5" width="87" height="87" rx="11.5" fill="url(#paint0_linear_282_2540)" fill-opacity="0.2"/>
<rect x="0.5" y="0.5" width="87" height="87" rx="11.5" stroke="#262626"/>
<path fill-rule="evenodd" clip-rule="evenodd" d="M36.5607 34.4396C37.1464 35.0254 37.1464 35.9751 36.5607 36.5609L29.1213 44.0002L36.5607 51.4396C37.1464 52.0254 37.1464 52.9751 36.5607 53.5609C35.9749 54.1467 35.0251 54.1467 34.4393 53.5609L25.9393 45.0609C25.3536 44.4751 25.3536 43.5254 25.9393 42.9396L34.4393 34.4396C35.0251 33.8538 35.9749 33.8538 36.5607 34.4396ZM51.4393 34.4396C52.0251 33.8538 52.9749 33.8538 53.5607 34.4396L62.0607 42.9396C62.6464 43.5254 62.6464 44.4751 62.0607 45.0609L53.5607 53.5609C52.9749 54.1467 52.0251 54.1467 51.4393 53.5609C50.8536 52.9751 50.8536 52.0254 51.4393 51.4396L58.8787 44.0002L51.4393 36.5609C50.8536 35.9751 50.8536 35.0254 51.4393 34.4396Z" fill="#F1F1F1"/>
<path fill-rule="evenodd" clip-rule="evenodd" d="M46.7549 28.0221C47.5712 28.1628 48.1189 28.9387 47.9782 29.7551L42.9782 58.7551C42.8374 59.5715 42.0615 60.1192 41.2451 59.9784C40.4288 59.8377 39.8811 59.0618 40.0218 58.2454L45.0218 29.2454C45.1626 28.429 45.9385 27.8813 46.7549 28.0221Z" fill="#F1F1F1"/>
<defs>
<linearGradient id="paint0_linear_282_2540" x1="-113.5" y1="-87" x2="88" y2="88" gradientUnits="userSpaceOnUse">
<stop offset="0.521" stop-color="#004EB5"/>
<stop offset="0.707836" stop-color="#519CFF" stop-opacity="0.4"/>
</linearGradient>
</defs>
</svg>
