<svg width="88" height="88" viewBox="0 0 88 88" fill="none" xmlns="http://www.w3.org/2000/svg">
<rect x="0.5" y="0.5" width="87" height="87" rx="11.5" fill="url(#paint0_linear_282_2558)" fill-opacity="0.2"/>
<rect x="0.5" y="0.5" width="87" height="87" rx="11.5" stroke="#262626"/>
<path d="M28.5982 46.0255C29.5692 46.0255 30.3393 45.2554 30.3393 44.3011C30.3393 43.3301 29.5692 42.5601 28.5982 42.5601C27.6272 42.5601 26.8571 43.3301 26.8571 44.3011C26.8571 45.2554 27.6272 46.0255 28.5982 46.0255ZM32.5491 34.29C33.5201 34.29 34.2901 33.5031 34.2901 32.5489C34.2901 31.5779 33.5201 30.8078 32.5491 30.8078C31.5948 30.8078 30.808 31.5779 30.808 32.5489C30.808 33.5031 31.5948 34.29 32.5491 34.29ZM44.3181 30.3391C45.2723 30.3391 46.0424 29.569 46.0424 28.598C46.0424 27.6438 45.2723 26.8569 44.3181 26.8569C43.3471 26.8569 42.577 27.6438 42.577 28.598C42.577 29.569 43.3471 30.3391 44.3181 30.3391ZM56.0703 34.29C57.0413 34.29 57.8114 33.5031 57.8114 32.5489C57.8114 31.5779 57.0413 30.8078 56.0703 30.8078C55.0993 30.8078 54.3293 31.5779 54.3293 32.5489C54.3293 33.5031 55.0993 34.29 56.0703 34.29ZM60.038 46.0255C60.9921 46.0255 61.7623 45.2554 61.7623 44.3011C61.7623 43.3301 60.9921 42.5601 60.038 42.5601C59.067 42.5601 58.2968 43.3301 58.2968 44.3011C58.2968 45.2554 59.067 46.0255 60.038 46.0255ZM57.1753 58.3469C57.9118 58.3469 58.548 57.7442 58.548 57.0076C58.548 56.2542 57.9118 55.6348 57.1753 55.6348H55.1328V44.5355C55.1328 38.425 50.4118 33.704 44.3181 33.704C38.2076 33.704 33.5201 38.425 33.5201 44.5355V55.6348H31.4442C30.7076 55.6348 30.1216 56.2542 30.1216 57.0076C30.1216 57.7442 30.7076 58.3469 31.4442 58.3469H57.1753ZM45.7243 44.5858V55.6348H42.9285V44.5858C42.9285 43.8156 43.548 43.1795 44.3181 43.1795C45.0881 43.1795 45.7243 43.8156 45.7243 44.5858Z" fill="#F1F1F1"/>
<defs>
<linearGradient id="paint0_linear_282_2558" x1="-113.5" y1="-87" x2="88" y2="88" gradientUnits="userSpaceOnUse">
<stop offset="0.521" stop-color="#004EB5"/>
<stop offset="0.707836" stop-color="#519CFF" stop-opacity="0.4"/>
</linearGradient>
</defs>
</svg>
