<svg width="18" height="15" viewBox="0 0 18 15" fill="none" xmlns="http://www.w3.org/2000/svg">
<path d="M1 3.21429C1 2.75963 1.1873 2.32359 1.5207 2.0021C1.8541 1.68061 2.30628 1.5 2.77778 1.5H15.2222C15.6937 1.5 16.1459 1.68061 16.4793 2.0021C16.8127 2.32359 17 2.75963 17 3.21429M1 3.21429V11.7857C1 12.2404 1.1873 12.6764 1.5207 12.9979C1.8541 13.3194 2.30628 13.5 2.77778 13.5H15.2222C15.6937 13.5 16.1459 13.3194 16.4793 12.9979C16.8127 12.6764 17 12.2404 17 11.7857V3.21429M1 3.21429L9 8.35714L17 3.21429" stroke="#BBBBBB" stroke-opacity="0.6" stroke-width="2" stroke-linecap="round" stroke-linejoin="round"/>
</svg>
