<svg width="37" height="36" viewBox="0 0 37 36" fill="none" xmlns="http://www.w3.org/2000/svg">
<circle cx="18.5" cy="18" r="18" fill="#D9D9D9" fill-opacity="0.12"/>
<path d="M14 16.875V22.5M14 13.5V13.5113M18.5 22.5V16.875M23 22.5V19.125C23 18.5283 22.7629 17.956 22.341 17.534C21.919 17.1121 21.3467 16.875 20.75 16.875C20.1533 16.875 19.581 17.1121 19.159 17.534C18.7371 17.956 18.5 18.5283 18.5 19.125M9.5 11.25C9.5 10.6533 9.73705 10.081 10.159 9.65901C10.581 9.23705 11.1533 9 11.75 9H25.25C25.8467 9 26.419 9.23705 26.841 9.65901C27.2629 10.081 27.5 10.6533 27.5 11.25V24.75C27.5 25.3467 27.2629 25.919 26.841 26.341C26.419 26.7629 25.8467 27 25.25 27H11.75C11.1533 27 10.581 26.7629 10.159 26.341C9.73705 25.919 9.5 25.3467 9.5 24.75V11.25Z" stroke="white" stroke-width="2" stroke-linecap="round" stroke-linejoin="round"/>
</svg>
