<svg width="42" height="42" viewBox="0 0 42 42" fill="none" xmlns="http://www.w3.org/2000/svg">
<path d="M2.33335 23.3334L0.600674 22.3345C0.264935 22.9168 0.244207 23.6289 0.545504 24.2298C0.8468 24.8307 1.42981 25.2401 2.09733 25.3194L2.33335 23.3334ZM18.6667 39.6667L16.6807 39.9027C16.76 40.5702 17.1693 41.1533 17.7703 41.4546C18.3712 41.7559 19.0832 41.7351 19.6656 41.3994L18.6667 39.6667ZM25.6667 28L25.003 26.1134C24.2252 26.387 23.695 27.1099 23.6678 27.934L25.6667 28ZM39.6667 9.33337L41.6637 9.44226C41.6657 9.406 41.6667 9.36969 41.6667 9.33337L39.6667 9.33337ZM32.6667 2.33337V0.333374C32.6304 0.333374 32.5941 0.334363 32.5578 0.33634L32.6667 2.33337ZM14 16.3334L14.066 18.3323C14.8901 18.3051 15.6131 17.7749 15.8867 16.9971L14 16.3334ZM10.3166 27.4083C11.2784 26.8653 11.618 25.6453 11.075 24.6835C10.5319 23.7216 9.31197 23.3821 8.3501 23.9251L10.3166 27.4083ZM2.33334 39.6667L0.350097 39.9251C0.4673 40.8247 1.17534 41.5327 2.07496 41.6499L2.33334 39.6667ZM18.075 33.6499C18.618 32.6881 18.2784 31.4681 17.3166 30.9251C16.3547 30.3821 15.1347 30.7216 14.5917 31.6835L18.075 33.6499ZM28 11.6667V13.6667V11.6667ZM2.09733 25.3194C5.81211 25.7609 9.27035 27.4393 11.9156 30.0845L14.744 27.2561C11.4639 23.976 7.1757 21.8948 2.56938 21.3473L2.09733 25.3194ZM11.9156 30.0845C14.5608 32.7297 16.2392 36.188 16.6807 39.9027L20.6527 39.4307C20.1053 34.8244 18.0241 30.5361 14.744 27.2561L11.9156 30.0845ZM19.6656 41.3994C22.0227 40.0405 23.9944 38.1029 25.3942 35.7699L21.9642 33.7119C20.9144 35.4617 19.4356 36.9148 17.6678 37.934L19.6656 41.3994ZM25.3942 35.7699C26.794 33.4368 27.5758 30.7854 27.6656 28.0661L23.6678 27.934C23.6004 29.9735 23.0141 31.9621 21.9642 33.7119L25.3942 35.7699ZM26.3304 29.8867C30.6214 28.3772 34.3685 25.6291 37.0978 21.9901L33.8978 19.5901C31.6432 22.5963 28.5478 24.8664 25.003 26.1134L26.3304 29.8867ZM37.0978 21.9901C39.8271 18.351 41.4161 13.9843 41.6637 9.44226L37.6697 9.22449C37.4651 12.9766 36.1525 16.5839 33.8978 19.5901L37.0978 21.9901ZM41.6667 9.33337C41.6667 6.94643 40.7185 4.65724 39.0306 2.96941L36.2022 5.79784C37.1399 6.73552 37.6667 8.00729 37.6667 9.33337L41.6667 9.33337ZM39.0306 2.96941C37.3428 1.28159 35.0536 0.333374 32.6667 0.333374V4.33337C33.9928 4.33337 35.2645 4.86016 36.2022 5.79784L39.0306 2.96941ZM32.5578 0.33634C28.0157 0.583993 23.6491 2.17293 20.01 4.90223L22.41 8.10223C25.4162 5.84759 29.0234 4.53499 32.7756 4.33041L32.5578 0.33634ZM20.01 4.90223C16.3709 7.63153 13.6229 11.3786 12.1134 15.6697L15.8867 16.9971C17.1337 13.4523 19.4038 10.3569 22.41 8.10223L20.01 4.90223ZM13.934 14.3345C11.2147 14.4243 8.56323 15.206 6.23018 16.6059L8.28816 20.0358C10.0379 18.986 12.0266 18.3996 14.066 18.3323L13.934 14.3345ZM6.23018 16.6059C3.89713 18.0057 1.95958 19.9773 0.600674 22.3345L4.06603 24.3323C5.08521 22.5644 6.53837 21.0857 8.28816 20.0358L6.23018 16.6059ZM8.3501 23.9251C5.57471 25.4919 3.33051 27.852 1.90518 30.7026L5.48289 32.4915C6.55189 30.3535 8.23504 28.5835 10.3166 27.4083L8.3501 23.9251ZM1.90518 30.7026C0.479851 33.5533 -0.0616488 36.7647 0.350097 39.9251L4.31658 39.4083C4.00777 37.038 4.41389 34.6295 5.48289 32.4915L1.90518 30.7026ZM2.07496 41.6499C5.23538 42.0617 8.44676 41.5202 11.2974 40.0949L9.50856 36.5172C7.37057 37.5862 4.96203 37.9923 2.59172 37.6835L2.07496 41.6499ZM11.2974 40.0949C14.1481 38.6695 16.5081 36.4253 18.075 33.6499L14.5917 31.6835C13.4166 33.765 11.6466 35.4482 9.50856 36.5172L11.2974 40.0949ZM23.6667 14C23.6667 15.1493 24.1232 16.2515 24.9359 17.0642L27.7643 14.2357C27.7018 14.1732 27.6667 14.0884 27.6667 14H23.6667ZM24.9359 17.0642C25.7485 17.8768 26.8507 18.3334 28 18.3334V14.3334C27.9116 14.3334 27.8268 14.2983 27.7643 14.2357L24.9359 17.0642ZM28 18.3334C29.1493 18.3334 30.2515 17.8768 31.0641 17.0642L28.2357 14.2357C28.1732 14.2983 28.0884 14.3334 28 14.3334V18.3334ZM31.0641 17.0642C31.8768 16.2515 32.3334 15.1493 32.3334 14H28.3334C28.3334 14.0884 28.2982 14.1732 28.2357 14.2357L31.0641 17.0642ZM32.3334 14C32.3334 12.8508 31.8768 11.7486 31.0641 10.9359L28.2357 13.7643C28.2982 13.8269 28.3334 13.9116 28.3334 14H32.3334ZM31.0641 10.9359C30.2515 10.1233 29.1493 9.66671 28 9.66671V13.6667C28.0884 13.6667 28.1732 13.7018 28.2357 13.7643L31.0641 10.9359ZM28 9.66671C26.8507 9.66671 25.7485 10.1233 24.9359 10.9359L27.7643 13.7643C27.8268 13.7018 27.9116 13.6667 28 13.6667V9.66671ZM24.9359 10.9359C24.1232 11.7486 23.6667 12.8508 23.6667 14H27.6667C27.6667 13.9116 27.7018 13.8269 27.7643 13.7643L24.9359 10.9359Z" fill="#0094FF"/>
</svg>
