<svg width="64" height="64" viewBox="0 0 64 64" fill="none" xmlns="http://www.w3.org/2000/svg">
<path d="M10.6667 29.3333C11.3464 29.3341 12.0001 29.5943 12.4943 30.0609C12.9886 30.5275 13.286 31.1652 13.3258 31.8437C13.3656 32.5222 13.1449 33.1903 12.7086 33.7115C12.2724 34.2327 11.6536 34.5677 10.9787 34.648L10.6667 34.6666H8.00002C7.32034 34.6659 6.6666 34.4056 6.17237 33.939C5.67814 33.4725 5.38072 32.8348 5.34089 32.1563C5.30106 31.4777 5.52182 30.8096 5.95806 30.2884C6.3943 29.7672 7.01309 29.4323 7.68802 29.352L8.00002 29.3333H10.6667Z" fill="#FFD600"/>
<path d="M32 5.33331C32.6532 5.3334 33.2836 5.5732 33.7717 6.00722C34.2598 6.44124 34.5716 7.03931 34.648 7.68798L34.6667 7.99998V10.6666C34.666 11.3463 34.4057 12.0001 33.9391 12.4943C33.4725 12.9885 32.8348 13.2859 32.1563 13.3258C31.4778 13.3656 30.8097 13.1448 30.2885 12.7086C29.7673 12.2724 29.4323 11.6536 29.352 10.9786L29.3334 10.6666V7.99998C29.3334 7.29274 29.6143 6.61446 30.1144 6.11436C30.6145 5.61426 31.2928 5.33331 32 5.33331Z" fill="#FFD600"/>
<path d="M56 29.3333C56.6797 29.3341 57.3334 29.5943 57.8277 30.0609C58.3219 30.5275 58.6193 31.1652 58.6591 31.8437C58.699 32.5222 58.4782 33.1903 58.042 33.7115C57.6057 34.2327 56.9869 34.5677 56.312 34.648L56 34.6666H53.3334C52.6537 34.6659 51.9999 34.4056 51.5057 33.939C51.0115 33.4725 50.7141 32.8348 50.6742 32.1563C50.6344 31.4777 50.8551 30.8096 51.2914 30.2884C51.7276 29.7672 52.3464 29.4323 53.0213 29.352L53.3334 29.3333H56Z" fill="#FFD600"/>
<path d="M13.0481 13.0479C13.5072 12.5887 14.1182 12.3129 14.7662 12.2722C15.4143 12.2314 16.055 12.4285 16.5681 12.8265L16.8187 13.0479L18.6854 14.9145C19.1637 15.3944 19.4413 16.0384 19.462 16.7156C19.4827 17.3928 19.2448 18.0524 18.7967 18.5606C18.3486 19.0688 17.7239 19.3874 17.0495 19.4516C16.375 19.5158 15.7014 19.321 15.1654 18.9065L14.9147 18.6852L13.0481 16.8185C12.5481 16.3185 12.2673 15.6403 12.2673 14.9332C12.2673 14.2261 12.5481 13.5479 13.0481 13.0479Z" fill="#FFD600"/>
<path d="M47.1814 13.048C47.6613 12.5698 48.3052 12.2921 48.9824 12.2714C49.6596 12.2507 50.3193 12.4886 50.8275 12.9367C51.3357 13.3848 51.6542 14.0095 51.7185 14.6839C51.7827 15.3584 51.5879 16.032 51.1734 16.568L50.9521 16.8187L49.0854 18.6853C48.6055 19.1636 47.9616 19.4413 47.2844 19.462C46.6072 19.4826 45.9475 19.2448 45.4393 18.7967C44.9312 18.3486 44.6126 17.7239 44.5484 17.0494C44.4841 16.375 44.679 15.7013 45.0934 15.1653L45.3148 14.9147L47.1814 13.048Z" fill="#FFD600"/>
<path d="M37.3334 48C38.0406 48 38.7189 48.2809 39.219 48.781C39.7191 49.2811 40 49.9594 40 50.6666C40 52.7884 39.1572 54.8232 37.6569 56.3235C36.1566 57.8238 34.1218 58.6666 32 58.6666C29.8783 58.6666 27.8435 57.8238 26.3432 56.3235C24.8429 54.8232 24 52.7884 24 50.6666C24.0001 50.0135 24.2399 49.3831 24.6739 48.895C25.108 48.4069 25.706 48.0951 26.3547 48.0186L26.6667 48H37.3334Z" fill="#FFD600"/>
<path d="M32 16C35.3582 16 38.6312 17.0566 41.3554 19.0201C44.0797 20.9836 46.117 23.7545 47.179 26.9403C48.2409 30.1261 48.2735 33.5653 47.2723 36.7707C46.271 39.976 44.2865 42.7851 41.6 44.8C41.2325 45.076 40.7998 45.2524 40.344 45.312L40 45.3333H24C23.4231 45.3333 22.8616 45.1462 22.4 44.8C19.7135 42.7851 17.7291 39.976 16.7278 36.7707C15.7265 33.5653 15.7592 30.1261 16.8211 26.9403C17.883 23.7545 19.9204 20.9836 22.6447 19.0201C25.3689 17.0566 28.6419 16 32 16Z" fill="#FFD600"/>
<path d="M10.6667 29.3333C11.3464 29.3341 12.0001 29.5943 12.4943 30.0609C12.9886 30.5275 13.286 31.1652 13.3258 31.8437C13.3656 32.5222 13.1449 33.1903 12.7086 33.7115C12.2724 34.2327 11.6536 34.5677 10.9787 34.648L10.6667 34.6666H8.00002C7.32034 34.6659 6.6666 34.4056 6.17237 33.939C5.67814 33.4725 5.38072 32.8348 5.34089 32.1563C5.30106 31.4777 5.52182 30.8096 5.95806 30.2884C6.3943 29.7672 7.01309 29.4323 7.68802 29.352L8.00002 29.3333H10.6667Z" stroke="#FFD600"/>
<path d="M32 5.33331C32.6532 5.3334 33.2836 5.5732 33.7717 6.00722C34.2598 6.44124 34.5716 7.03931 34.648 7.68798L34.6667 7.99998V10.6666C34.666 11.3463 34.4057 12.0001 33.9391 12.4943C33.4725 12.9885 32.8348 13.2859 32.1563 13.3258C31.4778 13.3656 30.8097 13.1448 30.2885 12.7086C29.7673 12.2724 29.4323 11.6536 29.352 10.9786L29.3334 10.6666V7.99998C29.3334 7.29274 29.6143 6.61446 30.1144 6.11436C30.6145 5.61426 31.2928 5.33331 32 5.33331Z" stroke="#FFD600"/>
<path d="M56 29.3333C56.6797 29.3341 57.3334 29.5943 57.8277 30.0609C58.3219 30.5275 58.6193 31.1652 58.6591 31.8437C58.699 32.5222 58.4782 33.1903 58.042 33.7115C57.6057 34.2327 56.9869 34.5677 56.312 34.648L56 34.6666H53.3334C52.6537 34.6659 51.9999 34.4056 51.5057 33.939C51.0115 33.4725 50.7141 32.8348 50.6742 32.1563C50.6344 31.4777 50.8551 30.8096 51.2914 30.2884C51.7276 29.7672 52.3464 29.4323 53.0213 29.352L53.3334 29.3333H56Z" stroke="#FFD600"/>
<path d="M13.0481 13.0479C13.5072 12.5887 14.1182 12.3129 14.7662 12.2722C15.4143 12.2314 16.055 12.4285 16.5681 12.8265L16.8187 13.0479L18.6854 14.9145C19.1637 15.3944 19.4413 16.0384 19.462 16.7156C19.4827 17.3928 19.2448 18.0524 18.7967 18.5606C18.3486 19.0688 17.7239 19.3874 17.0495 19.4516C16.375 19.5158 15.7014 19.321 15.1654 18.9065L14.9147 18.6852L13.0481 16.8185C12.5481 16.3185 12.2673 15.6403 12.2673 14.9332C12.2673 14.2261 12.5481 13.5479 13.0481 13.0479Z" stroke="#FFD600"/>
<path d="M47.1814 13.048C47.6613 12.5698 48.3052 12.2921 48.9824 12.2714C49.6596 12.2507 50.3193 12.4886 50.8275 12.9367C51.3357 13.3848 51.6542 14.0095 51.7185 14.6839C51.7827 15.3584 51.5879 16.032 51.1734 16.568L50.9521 16.8187L49.0854 18.6853C48.6055 19.1636 47.9616 19.4413 47.2844 19.462C46.6072 19.4826 45.9475 19.2448 45.4393 18.7967C44.9312 18.3486 44.6126 17.7239 44.5484 17.0494C44.4841 16.375 44.679 15.7013 45.0934 15.1653L45.3148 14.9147L47.1814 13.048Z" stroke="#FFD600"/>
<path d="M37.3334 48C38.0406 48 38.7189 48.2809 39.219 48.781C39.7191 49.2811 40 49.9594 40 50.6666C40 52.7884 39.1572 54.8232 37.6569 56.3235C36.1566 57.8238 34.1218 58.6666 32 58.6666C29.8783 58.6666 27.8435 57.8238 26.3432 56.3235C24.8429 54.8232 24 52.7884 24 50.6666C24.0001 50.0135 24.2399 49.3831 24.6739 48.895C25.108 48.4069 25.706 48.0951 26.3547 48.0186L26.6667 48H37.3334Z" stroke="#FFD600"/>
<path d="M32 16C35.3582 16 38.6312 17.0566 41.3554 19.0201C44.0797 20.9836 46.117 23.7545 47.179 26.9403C48.2409 30.1261 48.2735 33.5653 47.2723 36.7707C46.271 39.976 44.2865 42.7851 41.6 44.8C41.2325 45.076 40.7998 45.2524 40.344 45.312L40 45.3333H24C23.4231 45.3333 22.8616 45.1462 22.4 44.8C19.7135 42.7851 17.7291 39.976 16.7278 36.7707C15.7265 33.5653 15.7592 30.1261 16.8211 26.9403C17.883 23.7545 19.9204 20.9836 22.6447 19.0201C25.3689 17.0566 28.6419 16 32 16Z" stroke="#FFD600"/>
</svg>
