<svg width="46" height="41" viewBox="0 0 46 41" fill="none" xmlns="http://www.w3.org/2000/svg">
<path d="M39.875 22.2872L23 39.0002L6.125 22.2872C5.01194 21.204 4.1352 19.9022 3.54999 18.4636C2.96478 17.025 2.68377 15.4808 2.72467 13.9283C2.76556 12.3757 3.12747 10.8485 3.78761 9.44266C4.44775 8.03686 5.39181 6.78298 6.56035 5.75996C7.72889 4.73694 9.09659 3.96695 10.5773 3.49849C12.0581 3.03002 13.6198 2.87322 15.1641 3.03796C16.7084 3.2027 18.2019 3.68541 19.5505 4.45569C20.8991 5.22598 22.0736 6.26715 23 7.51365C23.9305 6.2762 25.1063 5.24413 26.454 4.48201C27.8016 3.7199 29.2921 3.24416 30.8321 3.08457C32.3721 2.92498 33.9284 3.08497 35.4037 3.55454C36.879 4.0241 38.2416 4.79312 39.406 5.81347C40.5704 6.83382 41.5117 8.08354 42.1709 9.48441C42.8302 10.8853 43.1932 12.4071 43.2372 13.9547C43.2812 15.5024 43.0053 17.0424 42.4268 18.4785C41.8483 19.9145 40.9795 21.2158 39.875 22.3007M22.9999 7.50003L15.5907 14.9093C15.1689 15.3312 14.9319 15.9034 14.9319 16.5C14.9319 17.0966 15.1689 17.6688 15.5907 18.0908L16.8124 19.3125C18.3649 20.865 20.8849 20.865 22.4374 19.3125L24.6874 17.0625C26.0301 15.7199 27.8511 14.9656 29.7499 14.9656C31.6488 14.9656 33.4698 15.7199 34.8124 17.0625L39.8749 22.125M24.125 28.875L28.625 33.375M29.75 23.25L34.25 27.75" stroke="#FF6666" stroke-width="4" stroke-linecap="round" stroke-linejoin="round"/>
</svg>
