<svg width="44" height="45" viewBox="0 0 44 45" fill="none" xmlns="http://www.w3.org/2000/svg">
<path d="M21 41.75C22.1046 41.75 23 40.8546 23 39.75C23 38.6454 22.1046 37.75 21 37.75V41.75ZM2.25 35.5833H0.25H2.25ZM6.41667 2.25V0.25V2.25ZM35.5833 2.25V0.25V2.25ZM37.75 21C37.75 22.1046 38.6454 23 39.75 23C40.8546 23 41.75 22.1046 41.75 21H37.75ZM2.25 14.8333C1.14543 14.8333 0.25 15.7288 0.25 16.8333C0.25 17.9379 1.14543 18.8333 2.25 18.8333V14.8333ZM39.75 18.8333C40.8546 18.8333 41.75 17.9379 41.75 16.8333C41.75 15.7288 40.8546 14.8333 39.75 14.8333V18.8333ZM18.8333 2.25C18.8333 1.14543 17.9379 0.25 16.8333 0.25C15.7288 0.25 14.8333 1.14543 14.8333 2.25H18.8333ZM14.8333 39.75C14.8333 40.8546 15.7288 41.75 16.8333 41.75C17.9379 41.75 18.8333 40.8546 18.8333 39.75H14.8333ZM37.5854 28.2917C37.5854 27.1871 36.6899 26.2917 35.5854 26.2917C34.4808 26.2917 33.5854 27.1871 33.5854 28.2917H37.5854ZM33.5854 42.875C33.5854 43.9796 34.4808 44.875 35.5854 44.875C36.6899 44.875 37.5854 43.9796 37.5854 42.875H33.5854ZM42.9001 33.6695C43.8567 33.1172 44.1844 31.8941 43.6321 30.9375C43.0798 29.9809 41.8566 29.6532 40.9 30.2055L42.9001 33.6695ZM38.1938 31.768C37.2372 32.3203 36.9095 33.5434 37.4618 34.5C38.0141 35.4566 39.2373 35.7843 40.1938 35.232L38.1938 31.768ZM32.9785 39.399C33.9353 38.8471 34.2635 37.624 33.7115 36.6672C33.1595 35.7105 31.9364 35.3823 30.9797 35.9343L32.9785 39.399ZM28.2713 37.4968C27.3146 38.0488 26.9864 39.2718 27.5384 40.2286C28.0904 41.1854 29.3135 41.5135 30.2702 40.9615L28.2713 37.4968ZM30.2702 30.2051C29.3135 29.6531 28.0904 29.9813 27.5384 30.9381C26.9864 31.8948 27.3146 33.1179 28.2713 33.6699L30.2702 30.2051ZM30.9797 35.2324C31.9364 35.7843 33.1595 35.4562 33.7115 34.4994C34.2635 33.5427 33.9353 32.3196 32.9785 31.7676L30.9797 35.2324ZM40.1933 35.9343C39.2365 35.3823 38.0134 35.7105 37.4614 36.6672C36.9095 37.624 37.2376 38.8471 38.1944 39.399L40.1933 35.9343ZM40.9027 40.9615C41.8595 41.5135 43.0825 41.1854 43.6345 40.2286C44.1865 39.2718 43.8584 38.0488 42.9016 37.4968L40.9027 40.9615ZM21 37.75H6.41667V41.75H21V37.75ZM6.41667 37.75C5.84203 37.75 5.29093 37.5217 4.8846 37.1154L2.05617 39.9438C3.21265 41.1003 4.78116 41.75 6.41667 41.75V37.75ZM4.8846 37.1154C4.47827 36.7091 4.25 36.158 4.25 35.5833H0.25C0.25 37.2188 0.8997 38.7873 2.05617 39.9438L4.8846 37.1154ZM4.25 35.5833V6.41667H0.25V35.5833H4.25ZM4.25 6.41667C4.25 5.84203 4.47827 5.29093 4.8846 4.8846L2.05617 2.05617C0.8997 3.21265 0.25 4.78117 0.25 6.41667H4.25ZM4.8846 4.8846C5.29093 4.47827 5.84203 4.25 6.41667 4.25V0.25C4.78117 0.25 3.21265 0.8997 2.05617 2.05617L4.8846 4.8846ZM6.41667 4.25H35.5833V0.25H6.41667V4.25ZM35.5833 4.25C36.158 4.25 36.7091 4.47827 37.1154 4.8846L39.9438 2.05617C38.7873 0.8997 37.2188 0.25 35.5833 0.25V4.25ZM37.1154 4.8846C37.5217 5.29093 37.75 5.84203 37.75 6.41667H41.75C41.75 4.78116 41.1003 3.21265 39.9438 2.05617L37.1154 4.8846ZM37.75 6.41667V21H41.75V6.41667H37.75ZM2.25 18.8333H39.75V14.8333H2.25V18.8333ZM14.8333 2.25V39.75H18.8333V2.25H14.8333ZM29.4187 35.5833C29.4187 37.2188 30.0684 38.7873 31.2249 39.9438L34.0533 37.1154C33.647 36.7091 33.4187 36.158 33.4187 35.5833H29.4187ZM31.2249 39.9438C32.3813 41.1003 33.9499 41.75 35.5854 41.75V37.75C35.0107 37.75 34.4596 37.5217 34.0533 37.1154L31.2249 39.9438ZM35.5854 41.75C37.2209 41.75 38.7894 41.1003 39.9459 39.9438L37.1174 37.1154C36.7111 37.5217 36.16 37.75 35.5854 37.75V41.75ZM39.9459 39.9438C41.1023 38.7873 41.752 37.2188 41.752 35.5833H37.752C37.752 36.158 37.5238 36.7091 37.1174 37.1154L39.9459 39.9438ZM41.752 35.5833C41.752 33.9478 41.1023 32.3793 39.9459 31.2228L37.1174 34.0513C37.5238 34.4576 37.752 35.0087 37.752 35.5833H41.752ZM39.9459 31.2228C38.7894 30.0664 37.2209 29.4167 35.5854 29.4167V33.4167C36.16 33.4167 36.7111 33.6449 37.1174 34.0513L39.9459 31.2228ZM35.5854 29.4167C33.9499 29.4167 32.3813 30.0664 31.2249 31.2228L34.0533 34.0513C34.4596 33.6449 35.0107 33.4167 35.5854 33.4167V29.4167ZM31.2249 31.2228C30.0684 32.3793 29.4187 33.9478 29.4187 35.5833H33.4187C33.4187 35.0087 33.647 34.4576 34.0533 34.0513L31.2249 31.2228ZM33.5854 28.2917V31.4167H37.5854V28.2917H33.5854ZM33.5854 39.75V42.875H37.5854V39.75H33.5854ZM40.9 30.2055L38.1938 31.768L40.1938 35.232L42.9001 33.6695L40.9 30.2055ZM30.9797 35.9343L28.2713 37.4968L30.2702 40.9615L32.9785 39.399L30.9797 35.9343ZM28.2713 33.6699L30.9797 35.2324L32.9785 31.7676L30.2702 30.2051L28.2713 33.6699ZM38.1944 39.399L40.9027 40.9615L42.9016 37.4968L40.1933 35.9343L38.1944 39.399Z" fill="#00FF85"/>
</svg>
