<svg width="40" height="40" viewBox="0 0 40 40" fill="none" xmlns="http://www.w3.org/2000/svg">
<path d="M2.75 20H4.75H2.75ZM20 39.25C21.1046 39.25 22 38.3546 22 37.25C22 36.1454 21.1046 35.25 20 35.25V39.25ZM35.25 20C35.25 21.1046 36.1454 22 37.25 22C38.3546 22 39.25 21.1046 39.25 20H35.25ZM20 2.75V0.75V2.75ZM22 10.4167C22 9.3121 21.1046 8.41667 20 8.41667C18.8954 8.41667 18 9.3121 18 10.4167H22ZM20 20H18C18 20.5304 18.2107 21.0391 18.5858 21.4142L20 20ZM19.5441 22.3725C20.3252 23.1536 21.5915 23.1536 22.3725 22.3725C23.1536 21.5915 23.1536 20.3252 22.3725 19.5441L19.5441 22.3725ZM31.5 23.75C30.3954 23.75 29.5 24.6454 29.5 25.75C29.5 26.8546 30.3954 27.75 31.5 27.75V23.75ZM37.25 39.25C38.3546 39.25 39.25 38.3546 39.25 37.25C39.25 36.1454 38.3546 35.25 37.25 35.25V39.25ZM23.75 37.25C23.75 38.3546 24.6454 39.25 25.75 39.25C26.8546 39.25 27.75 38.3546 27.75 37.25H23.75ZM27.75 25.75C27.75 24.6454 26.8546 23.75 25.75 23.75C24.6454 23.75 23.75 24.6454 23.75 25.75H27.75ZM0.75 20C0.75 25.1054 2.77812 30.0017 6.38819 33.6118L9.21662 30.7834C6.35669 27.9234 4.75 24.0445 4.75 20H0.75ZM6.38819 33.6118C9.99827 37.2219 14.8946 39.25 20 39.25V35.25C15.9554 35.25 12.0766 33.6433 9.21662 30.7834L6.38819 33.6118ZM39.25 20C39.25 17.4721 38.7521 14.9689 37.7847 12.6333L34.0892 14.1641C34.8555 16.0143 35.25 17.9973 35.25 20H39.25ZM37.7847 12.6333C36.8173 10.2978 35.3993 8.17572 33.6118 6.38819L30.7834 9.21662C32.1995 10.6327 33.3228 12.3139 34.0892 14.1641L37.7847 12.6333ZM33.6118 6.38819C31.8243 4.60067 29.7022 3.18272 27.3667 2.21532L25.8359 5.91084C27.6861 6.67722 29.3673 7.80053 30.7834 9.21662L33.6118 6.38819ZM27.3667 2.21532C25.0311 1.24792 22.5279 0.75 20 0.75V4.75C22.0027 4.75 23.9857 5.14445 25.8359 5.91084L27.3667 2.21532ZM20 0.75C17.4721 0.75 14.9689 1.24792 12.6333 2.21532L14.1641 5.91084C16.0143 5.14445 17.9973 4.75 20 4.75V0.75ZM12.6333 2.21532C10.2978 3.18272 8.17572 4.60067 6.38819 6.38819L9.21662 9.21662C10.6327 7.80053 12.3139 6.67722 14.1641 5.91084L12.6333 2.21532ZM6.38819 6.38819C4.60067 8.17572 3.18272 10.2978 2.21532 12.6333L5.91084 14.1641C6.67722 12.3139 7.80053 10.6327 9.21662 9.21662L6.38819 6.38819ZM2.21532 12.6333C1.24792 14.9689 0.75 17.4721 0.75 20H4.75C4.75 17.9973 5.14445 16.0143 5.91084 14.1641L2.21532 12.6333ZM18 10.4167V20H22V10.4167H18ZM18.5858 21.4142L19.5441 22.3725L22.3725 19.5441L21.4142 18.5858L18.5858 21.4142ZM31.5 27.75H35.3333V23.75H31.5V27.75ZM35.3333 27.75C35.3112 27.75 35.29 27.7412 35.2744 27.7256L38.1028 24.8972C37.3683 24.1626 36.3721 23.75 35.3333 23.75V27.75ZM35.2744 27.7256C35.2588 27.71 35.25 27.6888 35.25 27.6667H39.25C39.25 26.6279 38.8374 25.6317 38.1028 24.8972L35.2744 27.7256ZM35.25 27.6667V29.5833H39.25V27.6667H35.25ZM35.25 29.5833C35.25 29.5612 35.2588 29.54 35.2744 29.5244L38.1028 32.3528C38.8374 31.6183 39.25 30.6221 39.25 29.5833H35.25ZM35.2744 29.5244C35.29 29.5088 35.3112 29.5 35.3333 29.5V33.5C36.3721 33.5 37.3683 33.0874 38.1028 32.3528L35.2744 29.5244ZM35.3333 29.5H33.4167V33.5H35.3333V29.5ZM33.4167 29.5C32.3779 29.5 31.3817 29.9126 30.6472 30.6472L33.4756 33.4756C33.46 33.4912 33.4388 33.5 33.4167 33.5V29.5ZM30.6472 30.6472C29.9126 31.3817 29.5 32.3779 29.5 33.4167H33.5C33.5 33.4388 33.4912 33.46 33.4756 33.4756L30.6472 30.6472ZM29.5 33.4167V35.3333H33.5V33.4167H29.5ZM29.5 35.3333C29.5 36.3721 29.9126 37.3683 30.6472 38.1028L33.4756 35.2744C33.4912 35.29 33.5 35.3112 33.5 35.3333H29.5ZM30.6472 38.1028C31.3817 38.8374 32.3779 39.25 33.4167 39.25V35.25C33.4388 35.25 33.46 35.2588 33.4756 35.2744L30.6472 38.1028ZM33.4167 39.25H37.25V35.25H33.4167V39.25ZM27.75 37.25V25.75H23.75V37.25H27.75Z" fill="#27C9D3"/>
</svg>
